<?xml version="1.0" encoding="UTF-8" standalone="no"?>
<!-- Created with Inkscape (http://www.inkscape.org/) -->

<svg version="1.1" id="svg11334" width="253" height="40" viewBox="0 0 253 40" sodipodi:docname="Siemens_Logo_(1973).svg" xml:space="preserve" inkscape:version="1.2.1 (9c6d41e410, 2022-07-14)"
  xmlns:inkscape="http://www.inkscape.org/namespaces/inkscape"
  xmlns:sodipodi="http://sodipodi.sourceforge.net/DTD/sodipodi-0.dtd"
  xmlns="http://www.w3.org/2000/svg"
  xmlns:svg="http://www.w3.org/2000/svg">
  <defs id="defs11338">











  </defs>
  <sodipodi:namedview id="namedview11336" pagecolor="#ffffff" bordercolor="#666666" borderopacity="1.0" inkscape:showpageshadow="2" inkscape:pageopacity="0.0" inkscape:pagecheckerboard="0" inkscape:deskcolor="#d1d1d1" showgrid="false" inkscape:zoom="3.9042939" inkscape:cx="49.560818" inkscape:cy="75.942029" inkscape:window-width="3840" inkscape:window-height="2093" inkscape:window-x="-3849" inkscape:window-y="-9" inkscape:window-maximized="1" inkscape:current-layer="g11340" />
  <g inkscape:groupmode="layer" inkscape:label="Image" id="g11340" transform="translate(0,-442)">
    <g id="g13723" transform="matrix(3.085366,0,0,3.085366,-195.71798,517.20825)" style="stroke-width:0.324111">
      <path style="clip-rule:evenodd;fill:#ffffff;fill-opacity:1;fill-rule:evenodd;stroke-width:0.32411" d="m 63.687334,-11.869043 v -2.466314 c 1.403758,0.441816 2.645894,0.662724 3.726408,0.662724 1.491826,0 2.237862,-0.394338 2.237862,-1.18244 0,-0.293806 -0.108568,-0.540708 -0.326196,-0.740624 -0.222548,-0.212052 -0.79253,-0.506022 -1.70847,-0.882648 -1.643444,-0.675762 -2.715102,-1.252058 -3.21358,-1.728724 -0.646078,-0.629186 -0.969076,-1.422618 -0.969076,-2.381444 0,-1.234756 0.47068,-2.17587 1.411384,-2.822604 0.93029,-0.641076 2.141676,-0.961286 3.636044,-0.961286 0.823362,0 2.015068,0.151536 3.573806,0.455018 v 2.372506 c -1.159808,-0.4633 -2.236386,-0.694458 -3.231046,-0.694458 -1.400642,0 -2.100922,0.38458 -2.100922,1.155462 0,0.288148 0.14104,0.52316 0.42353,0.705364 0.23493,0.147436 0.882238,0.458872 1.94053,0.935292 1.523806,0.676746 2.538228,1.265014 3.043676,1.765378 0.599748,0.593516 0.900196,1.361528 0.900196,2.302888 0,1.353082 -0.588514,2.385216 -1.764722,3.096402 -0.952922,0.576706 -2.18858,0.86387 -3.706236,0.86387 -1.28166,0 -2.572996,-0.150962 -3.873188,-0.454362 z" id="path11370" />
      <polygon style="clip-rule:evenodd;fill:#ffffff;fill-opacity:1;fill-rule:evenodd;stroke-width:3.95256" points="183.603,155.001 141.063,155.001 141.063,2.704 183.603,2.704 " id="polygon11372" transform="matrix(0.082,0,0,0.082,63.434282,-24.377077)" />
      <polygon style="clip-rule:evenodd;fill:#ffffff;fill-opacity:1;fill-rule:evenodd;stroke-width:3.95256" points="331.721,30.25 263.616,30.25 263.616,64.639 322.898,64.639 322.898,89.765 263.616,89.765 263.616,125.906 333.476,125.906 333.476,155.001 222.616,155.001 222.616,2.704 331.721,2.704 " id="polygon11374" transform="matrix(0.082,0,0,0.082,63.434282,-24.377077)" />
      <polygon style="clip-rule:evenodd;fill:#ffffff;fill-opacity:1;fill-rule:evenodd;stroke-width:3.95256" points="435.023,156.547 391.219,47.171 391.219,155.001 361.247,155.001 361.247,2.704 416.402,2.704 454.721,100.015 494.001,2.704 546.39,2.704 546.39,155.001 506.056,155.001 506.056,47.171 461.392,156.547 " id="polygon11376" transform="matrix(0.082,0,0,0.082,63.434282,-24.377077)" />
      <polygon style="clip-rule:evenodd;fill:#ffffff;fill-opacity:1;fill-rule:evenodd;stroke-width:3.95256" points="694.514,30.25 626.415,30.25 626.415,64.639 685.695,64.639 685.695,89.765 626.415,89.765 626.415,125.906 696.28,125.906 696.28,155.001 585.411,155.001 585.411,2.704 694.514,2.704 " id="polygon11378" transform="matrix(0.082,0,0,0.082,63.434282,-24.377077)" />
      <polygon style="clip-rule:evenodd;fill:#ffffff;fill-opacity:1;fill-rule:evenodd;stroke-width:3.95256" points="855.847,2.704 855.847,155.001 807.943,155.001 754.247,51.678 754.247,155.001 724.271,155.001 724.271,2.704 773.575,2.704 825.883,104.655 825.883,2.704 " id="polygon11380" transform="matrix(0.082,0,0,0.082,63.434282,-24.377077)" />
      <path style="clip-rule:evenodd;fill:#ffffff;fill-opacity:1;fill-rule:evenodd;stroke-width:0.32411" d="m 136.09014,-11.869043 v -2.466314 c 1.39186,0.441816 2.63384,0.662724 3.72706,0.662724 1.49199,0 2.23712,-0.394338 2.23712,-1.18244 0,-0.293806 -0.10569,-0.540708 -0.31602,-0.740624 -0.2237,-0.212052 -0.79606,-0.506022 -1.71749,-0.882648 -1.63853,-0.670186 -2.71125,-1.246236 -3.21432,-1.728724 -0.64575,-0.62361 -0.96818,-1.419994 -0.96818,-2.389972 0,-1.229426 0.46954,-2.167424 1.41122,-2.814158 0.9289,-0.641076 2.14168,-0.961286 3.63621,-0.961286 0.84026,0 1.92905,0.133414 3.26442,0.401472 l 0.3084,0.05355 v 2.372506 c -1.15997,-0.4633 -2.23966,-0.694458 -3.23965,-0.694458 -1.39531,0 -2.09125,0.38458 -2.09125,1.155462 0,0.288148 0.1403,0.52316 0.42206,0.705364 0.22386,0.141778 0.87379,0.453378 1.94979,0.935292 1.51225,0.676746 2.52454,1.265014 3.03441,1.765378 0.60065,0.593516 0.90036,1.361528 0.90036,2.302888 0,1.353082 -0.58507,2.385216 -1.75529,3.096402 -0.9585,0.576706 -2.19727,0.86387 -3.71468,0.86387 -1.28306,8.2e-5 -2.57497,-0.15088 -3.87417,-0.45428 z" id="path11382" />
    </g>
  </g>
</svg>
